<svg id="Group_69" data-name="Group 69" xmlns="http://www.w3.org/2000/svg" xmlns:xlink="http://www.w3.org/1999/xlink" width="32" height="32.005" viewBox="0 0 32 32.005">
  <defs>
    <clipPath id="clip-path">
      <rect id="Rectangle_213" data-name="Rectangle 213" width="32" height="32.005" fill="none"/>
    </clipPath>
  </defs>
  <g id="Group_67" data-name="Group 67" clip-path="url(#clip-path)">
    <path id="Path_1587" data-name="Path 1587" d="M16.027,0A16,16,0,1,1,0,15.972,15.988,15.988,0,0,1,16.027,0M24.96,23.528c.008-.121.019-.223.019-.325,0-1.955.007-3.909,0-5.863a9.926,9.926,0,0,0-.1-1.355,3.847,3.847,0,0,0-3.559-3.563,3.586,3.586,0,0,0-3.534,1.434c-.058.077-.12.152-.237.3V12.676h-3.59V23.524h3.6v-.4c0-1.908.005-3.816,0-5.724a2.131,2.131,0,0,1,.543-1.5,1.873,1.873,0,0,1,1.9-.592,1.558,1.558,0,0,1,1.229,1.283,5.993,5.993,0,0,1,.143,1.312c.016,1.733.006,3.467.006,5.2v.43Zm-16.64,0h3.569V12.664H8.32ZM10.1,11.151a1.927,1.927,0,0,0,2-1.364,1.859,1.859,0,0,0-1.242-2.293,2.087,2.087,0,0,0-2.66,1.149A1.88,1.88,0,0,0,10.1,11.151" transform="translate(0 0)" fill="#3f1c8e"/>
  </g>
</svg>
