<svg xmlns="http://www.w3.org/2000/svg" xmlns:xlink="http://www.w3.org/1999/xlink" width="205.041" height="45.637" viewBox="0 0 205.041 45.637">
  <defs>
    <clipPath id="clip-path">
      <rect id="Rectangle_216" data-name="Rectangle 216" width="205.041" height="45.637" fill="none"/>
    </clipPath>
  </defs>
  <g id="Group_74" data-name="Group 74" clip-path="url(#clip-path)">
    <path id="Path_1588" data-name="Path 1588" d="M28.8.889h0A6.619,6.619,0,0,0,26.379,9.93L30,16.2h7.642l-3.821,6.619L45.083,42.327a6.619,6.619,0,0,0,11.464-6.618l-3.621-6.271H45.287l3.82-6.616L37.843,3.311A6.619,6.619,0,0,0,28.8.889" transform="translate(-16.14 -0.001)" fill="#3f1c8e"/>
    <path id="Path_1589" data-name="Path 1589" d="M6.619,44.16a6.619,6.619,0,0,0,0,13.237h7.241l3.821-6.619L21.5,57.4H44.028a6.619,6.619,0,1,0,0-13.237H36.791L32.97,50.779,29.149,44.16Z" transform="translate(0 -27.96)" fill="#ddaf12"/>
    <path id="Path_1590" data-name="Path 1590" d="M45.083,3.31l-3.62,6.271L45.284,16.2H37.641L26.379,35.708a6.618,6.618,0,0,0,11.463,6.619l3.622-6.273-3.82-6.616h7.64L56.547,9.929A6.618,6.618,0,1,0,45.083,3.31" transform="translate(-16.14 0)" fill="#47a01a"/>
    <path id="Path_1591" data-name="Path 1591" d="M63.485,50.781,59.662,44.16H52.02L48.2,50.778,52.022,57.4h7.644Z" transform="translate(-30.518 -27.96)" fill="#424448"/>
    <path id="Path_1592" data-name="Path 1592" d="M152,35.61h2.134v6.158h3.384v1.845h-3.384V58.352H152V43.613h-2.911V41.768H152Z" transform="translate(-94.396 -22.547)" fill="#424448"/>
    <path id="Path_1593" data-name="Path 1593" d="M181.566,51.659h2.18v2.424a7.649,7.649,0,0,1,2.058-2.141,4.058,4.058,0,0,1,2.256-.709,3.9,3.9,0,0,1,1.89.564l-1.113,1.8a2.965,2.965,0,0,0-1.128-.29,3.085,3.085,0,0,0-2.058.876,5.545,5.545,0,0,0-1.509,2.721,26.1,26.1,0,0,0-.4,5.732v5.609h-2.18Z" transform="translate(-114.96 -32.438)" fill="#424448"/>
    <rect id="Rectangle_214" data-name="Rectangle 214" width="2.134" height="16.584" transform="translate(77.576 19.221)" fill="#424448"/>
    <path id="Path_1594" data-name="Path 1594" d="M300.627,51.659V68.243h-2.1v-2.85a9.151,9.151,0,0,1-3.011,2.454,8.411,8.411,0,0,1-9.664-1.73,8.562,8.562,0,0,1-2.492-6.211,8.4,8.4,0,0,1,2.515-6.128,8.2,8.2,0,0,1,6.052-2.546,7.822,7.822,0,0,1,3.7.869,8.41,8.41,0,0,1,2.9,2.606V51.659ZM292.1,53.29a6.436,6.436,0,0,0-5.686,3.335,6.718,6.718,0,0,0,.008,6.7,6.533,6.533,0,0,0,2.413,2.489,6.3,6.3,0,0,0,3.251.89,6.666,6.666,0,0,0,3.319-.883,6.181,6.181,0,0,0,2.413-2.39,6.828,6.828,0,0,0,.845-3.4,6.6,6.6,0,0,0-1.9-4.811A6.278,6.278,0,0,0,292.1,53.29" transform="translate(-179.41 -32.438)" fill="#424448"/>
    <rect id="Rectangle_215" data-name="Rectangle 215" width="2.134" height="22.986" transform="translate(124.918 12.819)" fill="#424448"/>
    <path id="Path_1595" data-name="Path 1595" d="M371.168,62.742l1.8.945a9.792,9.792,0,0,1-2.045,2.8,8.114,8.114,0,0,1-2.609,1.624,9.117,9.117,0,0,1-3.28.556,7.927,7.927,0,0,1-6.347-2.66A8.975,8.975,0,0,1,356.4,60a8.864,8.864,0,0,1,1.938-5.624,7.921,7.921,0,0,1,6.576-3.14,8.182,8.182,0,0,1,6.773,3.216,8.981,8.981,0,0,1,1.831,5.67H358.593a6.749,6.749,0,0,0,1.846,4.737A5.889,5.889,0,0,0,364.85,66.7a7.085,7.085,0,0,0,2.464-.44,6.478,6.478,0,0,0,2.037-1.169,9.917,9.917,0,0,0,1.816-2.353m0-4.466a7.078,7.078,0,0,0-1.244-2.728,5.881,5.881,0,0,0-2.159-1.646,6.613,6.613,0,0,0-2.823-.625,6.079,6.079,0,0,0-4.2,1.57,7.088,7.088,0,0,0-1.938,3.43Z" transform="translate(-225.656 -32.439)" fill="#424448"/>
    <path id="Path_1596" data-name="Path 1596" d="M413.481,51.659h2.134v2.972a8.923,8.923,0,0,1,2.835-2.553,6.966,6.966,0,0,1,3.384-.846,5.881,5.881,0,0,1,3.3.945,5.628,5.628,0,0,1,2.126,2.546,13.456,13.456,0,0,1,.686,4.984v8.536h-2.134v-7.91a19.481,19.481,0,0,0-.237-3.826,4.2,4.2,0,0,0-1.423-2.477,4.3,4.3,0,0,0-2.744-.831,5.263,5.263,0,0,0-3.469,1.281,6,6,0,0,0-2.02,3.17,22.066,22.066,0,0,0-.3,4.512v6.081h-2.134Z" transform="translate(-261.799 -32.438)" fill="#424448"/>
    <path id="Path_1597" data-name="Path 1597" d="M476.3,55.1l-1.692,1.051a7.089,7.089,0,0,0-5.984-2.911,6.924,6.924,0,0,0-5.032,1.949,6.363,6.363,0,0,0-2,4.735,6.725,6.725,0,0,0,.921,3.411,6.454,6.454,0,0,0,2.527,2.481,7.644,7.644,0,0,0,9.569-2.028l1.692,1.113a7.989,7.989,0,0,1-3.193,2.778,10.206,10.206,0,0,1-4.565.987,9.017,9.017,0,0,1-6.523-2.5,8.13,8.13,0,0,1-2.591-6.082,8.684,8.684,0,0,1,1.212-4.474,8.533,8.533,0,0,1,3.331-3.224,9.713,9.713,0,0,1,4.741-1.159,10.124,10.124,0,0,1,3.178.5,8.829,8.829,0,0,1,2.6,1.31A7.13,7.13,0,0,1,476.3,55.1" transform="translate(-290.891 -32.439)" fill="#424448"/>
    <path id="Path_1598" data-name="Path 1598" d="M527.043,62.742l1.8.945a9.807,9.807,0,0,1-2.045,2.8,8.122,8.122,0,0,1-2.609,1.624,9.119,9.119,0,0,1-3.281.556,7.925,7.925,0,0,1-6.346-2.66A8.973,8.973,0,0,1,512.273,60a8.867,8.867,0,0,1,1.937-5.624,7.923,7.923,0,0,1,6.576-3.14,8.183,8.183,0,0,1,6.774,3.216,8.98,8.98,0,0,1,1.831,5.67H514.468a6.75,6.75,0,0,0,1.846,4.737,5.888,5.888,0,0,0,4.411,1.848,7.081,7.081,0,0,0,2.464-.44,6.478,6.478,0,0,0,2.037-1.169,9.944,9.944,0,0,0,1.816-2.353m0-4.466a7.077,7.077,0,0,0-1.244-2.728,5.888,5.888,0,0,0-2.16-1.646,6.614,6.614,0,0,0-2.823-.625,6.079,6.079,0,0,0-4.2,1.57,7.094,7.094,0,0,0-1.938,3.43Z" transform="translate(-324.35 -32.439)" fill="#424448"/>
    <path id="Path_1599" data-name="Path 1599" d="M213.121,35.542a1.76,1.76,0,1,1-1.76-1.76,1.761,1.761,0,0,1,1.76,1.76" transform="translate(-132.71 -21.389)" fill="#deaf12"/>
    <path id="Path_1600" data-name="Path 1600" d="M236.751,44.882,227.89,25.637h-3.616l10.68,23.194Z" transform="translate(-142.001 -16.232)" fill="#3f1c8e"/>
    <path id="Path_1601" data-name="Path 1601" d="M253.389,48.831,263.94,25.637h3.64L255.5,52.037h-.631Z" transform="translate(-160.435 -16.232)" fill="#47a01a"/>
  </g>
</svg>
