<svg xmlns="http://www.w3.org/2000/svg" width="529.589" height="364.736" viewBox="0 0 529.589 364.736">
  <g id="Group_35" data-name="Group 35" transform="translate(-1238.34 -4218.849)">
    <path id="Rectangle_12" data-name="Rectangle 12" d="M0,0H501.465A51.075,51.075,0,0,1,552.54,51.075v0a51.075,51.075,0,0,1-51.075,51.075H0a0,0,0,0,1,0,0V0A0,0,0,0,1,0,0Z" transform="translate(1716.854 4583.585) rotate(-150)" fill="#3f1c8e" opacity="0.9"/>
    <path id="Rectangle_194" data-name="Rectangle 194" d="M0,0H360.639a36.732,36.732,0,0,1,36.732,36.732v0a36.732,36.732,0,0,1-36.732,36.732H0a0,0,0,0,1,0,0V0A0,0,0,0,1,0,0Z" transform="translate(1679.194 4481.156) rotate(-150)" fill="#deaf12" opacity="0.902"/>
  </g>
</svg>
