<svg id="Group_78" data-name="Group 78" xmlns="http://www.w3.org/2000/svg" xmlns:xlink="http://www.w3.org/1999/xlink" width="763.523" height="688" viewBox="0 0 763.523 688">
  <defs>
    <clipPath id="clip-path">
      <rect id="Rectangle_217" data-name="Rectangle 217" width="763.523" height="688" fill="none"/>
    </clipPath>
  </defs>
  <g id="Group_78-2" data-name="Group 78" transform="translate(0 0)" clip-path="url(#clip-path)">
    <path id="Path_1602" data-name="Path 1602" d="M75.4,13.385h0a99.782,99.782,0,0,0-36.523,136.3l54.579,94.536H208.668L151.063,344,320.857,638.09a99.778,99.778,0,0,0,172.824-99.773L439.1,443.775H323.932l57.582-99.735L211.7,49.908A99.778,99.778,0,0,0,75.4,13.385" transform="translate(115.484 0.004)" fill="#3f1c8e"/>
    <path id="Path_1603" data-name="Path 1603" d="M99.779,44.16a99.779,99.779,0,1,0,0,199.558H208.937l57.61-99.779,57.6,99.779H663.744a99.779,99.779,0,1,0,0-199.558h-109.1l-57.6,99.779-57.6-99.779Z" transform="translate(0 200.061)" fill="#ddaf12"/>
    <path id="Path_1604" data-name="Path 1604" d="M320.858,49.906l-54.579,94.536,57.6,99.779H208.669L38.875,538.315a99.777,99.777,0,0,0,172.818,99.779l54.6-94.569L208.7,443.779H323.883L493.676,149.685A99.777,99.777,0,1,0,320.858,49.906" transform="translate(115.483 0)" fill="#47a01a"/>
    <path id="Path_1605" data-name="Path 1605" d="M278.639,143.983,221.007,44.16H105.793L48.2,143.933l57.626,99.784H221.057Z" transform="translate(218.361 200.061)" fill="#424448"/>
  </g>
</svg>
