<svg xmlns="http://www.w3.org/2000/svg" width="690.554" height="475.594" viewBox="0 0 690.554 475.594">
  <g id="Group_34" data-name="Group 34" transform="translate(345.277 -2097.703)">
    <path id="Rectangle_198" data-name="Rectangle 198" d="M0,0H653.882a66.6,66.6,0,0,1,66.6,66.6v0a66.6,66.6,0,0,1-66.6,66.6H0a0,0,0,0,1,0,0V0A0,0,0,0,1,0,0Z" transform="translate(278.678 2573.297) rotate(-150)" fill="#47a01a" opacity="0.9"/>
    <path id="Rectangle_197" data-name="Rectangle 197" d="M0,0H470.254a47.9,47.9,0,0,1,47.9,47.9v0a47.9,47.9,0,0,1-47.9,47.9H0a0,0,0,0,1,0,0V0A0,0,0,0,1,0,0Z" transform="translate(229.571 2439.737) rotate(-150)" fill="#deaf12" opacity="0.902"/>
  </g>
</svg>
